<svg xmlns="http://www.w3.org/2000/svg" viewBox="0 0 40 40"><defs><style>.cls-1{fill:#fff;stroke:#000;stroke-linecap:round;stroke-linejoin:round;}.cls-2{fill:#1d1d1b;}</style></defs><g id="Capa_2" data-name="Capa 2"><g id="S_light" data-name="S light"><path class="cls-1" d="M25.46,36.45H6.7a1.82,1.82,0,0,1-1.76-2.29L12.78,4.9a1.81,1.81,0,0,1,1.76-1.35H33.3a1.82,1.82,0,0,1,1.76,2.29L27.22,35.1A1.81,1.81,0,0,1,25.46,36.45Z"/><path class="cls-2" d="M25.54,7c3.49,0,4.84,1.85,3.91,5.33l-.66,2.45a.72.72,0,0,1-.75.59H24.3c-.37,0-.53-.22-.43-.59l.42-1.56c.25-1-.09-1.48-1.09-1.48h-2a1.84,1.84,0,0,0-1.87,1.48l-.85,3.15,8.19,2.89c.57.22.78.66.6,1.37l-1.87,7C24.43,31.11,22.08,33,18.6,33H14.45c-3.44,0-4.83-1.85-3.9-5.33l.64-2.41a.72.72,0,0,1,.75-.59h3.74c.41,0,.55.18.44.59l-.42,1.56c-.27,1,.16,1.48,1.09,1.48h2a1.78,1.78,0,0,0,1.87-1.48l1-3.74-8.12-2.89a1,1,0,0,1-.63-1.37l1.72-6.41C15.57,8.89,18,7,21.4,7Z"/></g></g></svg>