<svg xmlns="http://www.w3.org/2000/svg" viewBox="0 0 200 50"><defs><style>.cls-1{fill:#1d1d1b;}.cls-2{fill:#fff;}</style></defs><g id="Capa_2" data-name="Capa 2"><g id="logo_horizontal_light" data-name="logo horizontal light"><path class="cls-1" d="M170.11,37.53H118.18c-1.34,0-2.31-2.16-2-4.36L119.08,15c.23-1.51,1-2.56,2-2.56H173c1.33,0,2.31,2.16,2,4.36L172.07,35C171.83,36.48,171,37.53,170.11,37.53Z"/><path class="cls-1" d="M36.74,15.64c2.67,0,3.71,1.42,3,4.09l-.51,1.88a.55.55,0,0,1-.57.45H35.78c-.28,0-.41-.17-.33-.45l.32-1.2c.2-.74-.06-1.13-.83-1.13H33.37a1.41,1.41,0,0,0-1.44,1.13l-.65,2.42,6.29,2.22A.77.77,0,0,1,38,26.1L36.6,31.45a5,5,0,0,1-5.2,4.1H28.22c-2.65,0-3.72-1.42-3-4.1l.49-1.85a.56.56,0,0,1,.58-.45h2.87c.32,0,.42.14.34.45l-.32,1.2c-.21.77.12,1.14.83,1.14h1.54A1.39,1.39,0,0,0,33,30.8l.77-2.88-6.23-2.21A.77.77,0,0,1,27,24.65l1.32-4.92a5,5,0,0,1,5.19-4.09Z"/><path class="cls-1" d="M53.18,15.64c.31,0,.41.17.33.45l-.76,2.85a.56.56,0,0,1-.58.45h-3.3l-4.2,15.7a.54.54,0,0,1-.58.46h-3c-.28,0-.42-.14-.33-.46L45,19.39h-3.3c-.29,0-.41-.17-.34-.45l.76-2.85a.59.59,0,0,1,.58-.45Z"/><path class="cls-1" d="M50.75,35.55c-.32,0-.41-.17-.34-.46l5.09-19a.56.56,0,0,1,.58-.45h3c.28,0,.41.17.33.45l-5.09,19a.57.57,0,0,1-.58.46Z"/><path class="cls-1" d="M71.83,22.8a.59.59,0,0,1-.58.46H68.58c-.32,0-.41-.17-.34-.46l.63-2.33c.2-.74-.1-1.14-.84-1.14H66.21a1.39,1.39,0,0,0-1.44,1.14L62,30.8c-.2.77.1,1.14.84,1.14h1.82A1.38,1.38,0,0,0,66.1,30.8l.65-2.42a.56.56,0,0,1,.58-.46H70c.28,0,.41.18.33.46l-.82,3.07a5,5,0,0,1-5.19,4.1H61.13c-2.67,0-3.74-1.42-3-4.1l3.14-11.72a5.06,5.06,0,0,1,5.22-4.09h3.19c2.65,0,3.72,1.42,3,4.09Z"/><path class="cls-1" d="M80.42,35.55a.47.47,0,0,1-.54-.43l-1.71-7-1.59,2L75.28,35a.7.7,0,0,1-.72.57H71.82c-.36,0-.51-.2-.41-.57l5-18.78a.69.69,0,0,1,.72-.56h2.73c.37,0,.52.19.42.56l-2,7.4,6.4-7.54a1,1,0,0,1,.77-.42h3c.43,0,.54.31.22.68l-7.12,8.5L84,34.89c.1.37-.14.66-.6.66Z"/><path class="cls-1" d="M101.74,18.94a.58.58,0,0,1-.59.48h-7L93,23.8H98.3c.28,0,.41.17.33.48l-.76,2.82a.58.58,0,0,1-.58.48H91.94l-1.13,4.21h7c.34,0,.41.15.33.46l-.76,2.84a.54.54,0,0,1-.58.46H86.36c-.25,0-.38-.17-.3-.46l5.09-19a.56.56,0,0,1,.55-.45h10.47c.34,0,.41.17.33.45Z"/><path class="cls-1" d="M113.93,25.45a5.24,5.24,0,0,1-2.52,3.47L111.25,35a.49.49,0,0,1-.54.51h-2.79c-.28,0-.38-.14-.37-.4l.13-5.6h-2.53l-1.48,5.54a.59.59,0,0,1-.58.46H100.3c-.28,0-.41-.17-.33-.46l5.09-19a.58.58,0,0,1,.58-.45h6.82c2.68,0,3.72,1.42,3,4.09Zm-5,.43a1.4,1.4,0,0,0,1.44-1.14l1.15-4.3c.2-.74-.09-1.13-.83-1.13H107.9l-1.76,6.57Z"/><path class="cls-2" d="M124.79,31.79h5.63c.31,0,.41.17.33.46L130,35.09a.53.53,0,0,1-.58.46h-9c-.29,0-.42-.14-.34-.46l5.1-19a.57.57,0,0,1,.57-.45h3c.32,0,.41.17.34.45Z"/><path class="cls-2" d="M142.81,35.55c-.25,0-.36-.14-.35-.4l0-3.58h-5.34l-1.85,3.58a.59.59,0,0,1-.56.4H132c-.31,0-.4-.17-.24-.49l9.83-19a.6.6,0,0,1,.59-.39h3.95c.26,0,.4.11.38.39l-.38,19c0,.32-.19.49-.53.49Zm0-15-3.87,7.74h3.59Z"/><path class="cls-2" d="M162.89,23.57a2.9,2.9,0,0,1-2.33,2l0,.06a1.51,1.51,0,0,1,1.25,2l-1,3.78a5.05,5.05,0,0,1-5.22,4.1h-6.83c-.28,0-.41-.17-.33-.46l5.09-19a.55.55,0,0,1,.58-.45h6.82c2.68,0,3.75,1.42,3,4.09Zm-2.75-3.21c.2-.74-.07-1.14-.83-1.14h-3.13L155,23.74h3.12a1.4,1.4,0,0,0,1.44-1.11Zm-2.22,8.28c.2-.74-.06-1.14-.83-1.14H154L152.76,32h3.13a1.37,1.37,0,0,0,1.44-1.13Z"/><path class="cls-2" d="M165.19,32.36a.51.51,0,0,1,.57-.57h2.59a.51.51,0,0,1,.57.57V35a.51.51,0,0,1-.57.57h-2.59a.51.51,0,0,1-.57-.57Z"/></g></g></svg>