<svg id="Capa_1" data-name="Capa 1" xmlns="http://www.w3.org/2000/svg" viewBox="0 0 40 40"><defs><style>.cls-1{fill:#1d1d1b;}</style></defs><path class="cls-1" d="M32.39,7.62A17.49,17.49,0,0,0,4.87,28.71L2.5,37.5l9.16-2.16A17.47,17.47,0,0,0,20,37.46h0A17.49,17.49,0,0,0,32.39,7.62Zm-3.82,18.6a4.37,4.37,0,0,1-2.95,2.07c-.8.08-1.55.37-5.24-1.09-4.44-1.75-7.24-6.3-7.46-6.59a8.49,8.49,0,0,1-1.78-4.52,4.89,4.89,0,0,1,1.53-3.64,1.57,1.57,0,0,1,1.16-.54h.84c.31,0,.66,0,1,.75s1.24,3,1.35,3.24a.83.83,0,0,1,0,.77,3.22,3.22,0,0,1-.44.73c-.22.25-.46.57-.65.76s-.45.46-.2.89a13.25,13.25,0,0,0,2.43,3,12.17,12.17,0,0,0,3.51,2.16c.44.22.7.19.95-.11s1.09-1.27,1.38-1.71.59-.36,1-.22,2.55,1.21,3,1.42.73.33.84.51A3.62,3.62,0,0,1,28.57,26.22Z"/></svg>