<svg id="Capa_1" data-name="Capa 1" xmlns="http://www.w3.org/2000/svg" viewBox="0 0 40 40"><defs><style>.cls-1{fill:#fff;fill-rule:evenodd;}</style></defs><path class="cls-1" d="M32.4,7.59A17.44,17.44,0,0,0,2.65,19.84,17.19,17.19,0,0,0,5,28.51l-2.47,9,9.24-2.42a17.48,17.48,0,0,0,8.33,2.12h0A17.41,17.41,0,0,0,37.5,19.85,17.18,17.18,0,0,0,32.4,7.59ZM20.07,34.27h0a14.52,14.52,0,0,1-7.37-2L12.17,32,6.68,33.38l1.47-5.32-.35-.55A14.41,14.41,0,0,1,20.08,5.43a14.42,14.42,0,1,1,0,28.84Zm8-10.8c-.44-.21-2.58-1.26-3-1.41s-.69-.21-1,.22-1.12,1.41-1.38,1.7-.5.32-.94.11a11.91,11.91,0,0,1-3.5-2.16,12.94,12.94,0,0,1-2.42-3c-.26-.43,0-.67.19-.88s.44-.51.65-.76a3,3,0,0,0,.44-.72.81.81,0,0,0,0-.76c-.11-.22-1-2.35-1.34-3.22s-.72-.73-1-.74-.54,0-.84,0a1.59,1.59,0,0,0-1.16.55A4.83,4.83,0,0,0,11.22,16,8.43,8.43,0,0,0,13,20.48c.22.28,3.07,4.66,7.44,6.53a24.08,24.08,0,0,0,2.48.92,6,6,0,0,0,2.74.17A4.46,4.46,0,0,0,28.6,26,3.6,3.6,0,0,0,28.85,24C28.74,23.8,28.45,23.69,28,23.47Z"/></svg>