<svg id="Capa_1" data-name="Capa 1" xmlns="http://www.w3.org/2000/svg" viewBox="0 0 40 40"><defs><style>.cls-1{fill:#fff;}</style></defs><path class="cls-1" d="M12.22,2.5A9.73,9.73,0,0,0,2.5,12.22V27.78a9.73,9.73,0,0,0,9.72,9.72H27.78a9.73,9.73,0,0,0,9.72-9.72V12.22A9.73,9.73,0,0,0,27.78,2.5Zm0,3.89H27.78a5.84,5.84,0,0,1,5.83,5.83V27.78a5.84,5.84,0,0,1-5.83,5.83H12.22a5.84,5.84,0,0,1-5.83-5.83V12.22A5.84,5.84,0,0,1,12.22,6.39Zm17.5,1.94a1.95,1.95,0,1,0,2,1.95A1.94,1.94,0,0,0,29.72,8.33ZM20,10.28A9.72,9.72,0,1,0,29.72,20,9.73,9.73,0,0,0,20,10.28Zm0,3.89A5.83,5.83,0,1,1,14.17,20,5.83,5.83,0,0,1,20,14.17Z"/></svg>